<svg width="21" height="17" viewBox="0 0 21 17" fill="none" xmlns="http://www.w3.org/2000/svg">
<path d="M18.2868 14.0161H16.2868V5.26611L10.2868 9.01611L4.2868 5.26611V14.0161H2.2868V2.01611H3.4868L10.2868 6.26611L17.0868 2.01611H18.2868M18.2868 0.0161133H2.2868C1.1768 0.0161133 0.286804 0.906113 0.286804 2.01611V14.0161C0.286804 14.5465 0.497518 15.0553 0.872591 15.4303C1.24766 15.8054 1.75637 16.0161 2.2868 16.0161H18.2868C18.8172 16.0161 19.3259 15.8054 19.701 15.4303C20.0761 15.0553 20.2868 14.5465 20.2868 14.0161V2.01611C20.2868 1.48568 20.0761 0.976972 19.701 0.6019C19.3259 0.226827 18.8172 0.0161133 18.2868 0.0161133Z" fill="black"/>
</svg>
