<svg width="21" height="20" viewBox="0 0 21 20" fill="none" xmlns="http://www.w3.org/2000/svg">
<path d="M10.1177 7.14107C9.32208 7.14107 8.55902 7.44397 7.99641 7.98314C7.4338 8.52231 7.11773 9.25358 7.11773 10.0161C7.11773 10.7786 7.4338 11.5098 7.99641 12.049C8.55902 12.5882 9.32208 12.8911 10.1177 12.8911C10.9134 12.8911 11.6764 12.5882 12.239 12.049C12.8017 11.5098 13.1177 10.7786 13.1177 10.0161C13.1177 9.25358 12.8017 8.52231 12.239 7.98314C11.6764 7.44397 10.9134 7.14107 10.1177 7.14107ZM10.1177 5.22441C11.4438 5.22441 12.7156 5.72924 13.6533 6.62785C14.5909 7.52646 15.1177 8.74524 15.1177 10.0161C15.1177 11.2869 14.5909 12.5057 13.6533 13.4043C12.7156 14.3029 11.4438 14.8077 10.1177 14.8077C8.79165 14.8077 7.51988 14.3029 6.5822 13.4043C5.64451 12.5057 5.11773 11.2869 5.11773 10.0161C5.11773 8.74524 5.64451 7.52646 6.5822 6.62785C7.51988 5.72924 8.79165 5.22441 10.1177 5.22441ZM16.6177 4.98482C16.6177 5.30253 16.486 5.60722 16.2516 5.83188C16.0172 6.05653 15.6993 6.18274 15.3677 6.18274C15.0362 6.18274 14.7183 6.05653 14.4838 5.83188C14.2494 5.60722 14.1177 5.30253 14.1177 4.98482C14.1177 4.66712 14.2494 4.36242 14.4838 4.13777C14.7183 3.91311 15.0362 3.78691 15.3677 3.78691C15.6993 3.78691 16.0172 3.91311 16.2516 4.13777C16.486 4.36242 16.6177 4.66712 16.6177 4.98482ZM10.1177 2.34941C7.64373 2.34941 7.23973 2.35611 6.08873 2.40499C5.30473 2.44045 4.77873 2.54107 4.29073 2.72316C3.88256 2.86726 3.51345 3.09751 3.21073 3.39686C2.898 3.68687 2.65739 4.04061 2.50673 4.43186C2.31673 4.90145 2.21173 5.40457 2.17573 6.15495C2.12373 7.21295 2.11673 7.58286 2.11673 10.0161C2.11673 12.3879 2.12373 12.7742 2.17473 13.8772C2.21173 14.6276 2.31673 15.1326 2.50573 15.5993C2.67573 16.0162 2.87573 16.3162 3.20773 16.6343C3.54473 16.9563 3.85773 17.1489 4.28773 17.308C4.78173 17.4911 5.30773 17.5927 6.08773 17.6272C7.19173 17.677 7.57773 17.6827 10.1167 17.6827C12.5917 17.6827 12.9947 17.676 14.1457 17.6272C14.9277 17.5917 15.4537 17.4911 15.9427 17.3099C16.3509 17.1658 16.72 16.9356 17.0227 16.6362C17.3597 16.3142 17.5607 16.0143 17.7267 15.6012C17.9167 15.1297 18.0227 14.6257 18.0587 13.8762C18.1107 12.8192 18.1167 12.4483 18.1167 10.0161C18.1167 7.64516 18.1097 7.25799 18.0587 6.15495C18.0217 5.40553 17.9157 4.89953 17.7267 4.43186C17.5764 4.0407 17.3361 3.68697 17.0237 3.39686C16.7211 3.09717 16.352 2.86658 15.9437 2.7222C15.4537 2.54011 14.9277 2.43949 14.1457 2.40499C13.0427 2.35516 12.6567 2.34941 10.1167 2.34941M10.1167 0.432739C12.8337 0.432739 13.1727 0.442323 14.2397 0.490239C15.3037 0.538156 16.0297 0.698198 16.6667 0.935864C17.3267 1.17928 17.8827 1.50895 18.4387 2.04082C18.9474 2.51973 19.3409 3.09928 19.5917 3.73899C19.8387 4.34945 20.0067 5.0452 20.0567 6.06582C20.1037 7.08741 20.1167 7.41228 20.1167 10.0161C20.1167 12.6199 20.1067 12.9447 20.0567 13.9663C20.0067 14.9879 19.8387 15.6817 19.5917 16.2932C19.3409 16.9329 18.9474 17.5124 18.4387 17.9913C17.939 18.4788 17.3343 18.8559 16.6667 19.0963C16.0297 19.333 15.3037 19.494 14.2397 19.5419C13.1727 19.5869 12.8337 19.5994 10.1167 19.5994C7.39973 19.5994 7.06073 19.5898 5.99373 19.5419C4.92973 19.494 4.20473 19.333 3.56673 19.0963C2.8992 18.8559 2.29446 18.4788 1.79473 17.9913C1.28604 17.5124 0.892546 16.9329 0.64173 16.2932C0.39373 15.6827 0.22673 14.9869 0.17673 13.9663C0.12873 12.9447 0.11673 12.6199 0.11673 10.0161C0.11673 7.41228 0.12673 7.08741 0.17673 6.06582C0.22673 5.04424 0.39373 4.35041 0.64173 3.73899C0.892546 3.09928 1.28604 2.51973 1.79473 2.04082C2.29446 1.55332 2.8992 1.17623 3.56673 0.935864C4.20373 0.698198 4.92873 0.538156 5.99373 0.490239C7.06173 0.445198 7.40073 0.432739 10.1177 0.432739" fill="black"/>
</svg>
